<?xml version="1.0" encoding="utf-8" ?>	<!-- Generator: Assembly 2.2 - http://assemblyapp.co -->	<svg version="1.1" xmlns="http://www.w3.org/2000/svg" xmlns:xlink="http://www.w3.org/1999/xlink" width="2048.00" height="2048.00" viewBox="0 0 2048.0 2048.0">		<g id="document" transform="matrix(1,0,0,1,1024.0,1024.0)">			<path d="M-968.066,-762.303 L-762.303,-762.303 L-762.303,-968.066 L-968.066,-968.066 L-968.066,-762.303 Z M-721.151,-762.303 L-515.388,-762.303 L-515.388,-968.066 L-721.151,-968.066 L-721.151,-762.303 Z M-474.236,-762.303 L-268.473,-762.303 L-268.473,-968.066 L-474.236,-968.066 L-474.236,-762.303 Z M-227.318,-762.303 L-21.5556,-762.303 L-21.5556,-968.066 L-227.318,-968.066 L-227.318,-762.303 Z M21.5556,-762.303 L227.318,-762.303 L227.318,-968.066 L21.5556,-968.066 L21.5556,-762.303 Z M266.511,-762.303 L472.274,-762.303 L472.274,-968.066 L266.511,-968.066 L266.511,-762.303 Z M515.385,-762.303 L721.148,-762.303 L721.148,-968.066 L515.385,-968.066 L515.385,-762.303 Z M762.303,-762.303 L968.066,-762.303 L968.066,-968.066 L762.303,-968.066 L762.303,-762.303 Z M-968.066,-515.388 L-762.303,-515.388 L-762.303,-721.151 L-968.066,-721.151 L-968.066,-515.388 Z M-721.151,-515.388 L-515.388,-515.388 L-515.388,-721.151 L-721.151,-721.151 L-721.151,-515.388 Z M-474.236,-515.388 L-268.473,-515.388 L-268.473,-721.151 L-474.236,-721.151 L-474.236,-515.388 Z M-227.318,-515.388 L-21.5556,-515.388 L-21.5556,-721.151 L-227.318,-721.151 L-227.318,-515.388 Z M21.5556,-515.388 L227.318,-515.388 L227.318,-721.151 L21.5556,-721.151 L21.5556,-515.388 Z M266.511,-515.388 L472.274,-515.388 L472.274,-721.151 L266.511,-721.151 L266.511,-515.388 Z M515.385,-515.388 L721.148,-515.388 L721.148,-721.151 L515.385,-721.151 L515.385,-515.388 Z M762.303,-515.388 L968.066,-515.388 L968.066,-721.151 L762.303,-721.151 L762.303,-515.388 Z M-968.066,-268.473 L-762.303,-268.473 L-762.303,-474.236 L-968.066,-474.236 L-968.066,-268.473 Z M-721.151,-268.473 L-515.388,-268.473 L-515.388,-474.236 L-721.151,-474.236 L-721.151,-268.473 Z M-474.236,-268.473 L-268.473,-268.473 L-268.473,-474.236 L-474.236,-474.236 L-474.236,-268.473 Z M-227.318,-268.473 L-21.5556,-268.473 L-21.5556,-474.236 L-227.318,-474.236 L-227.318,-268.473 Z M21.5556,-268.473 L227.318,-268.473 L227.318,-474.236 L21.5556,-474.236 L21.5556,-268.473 Z M266.511,-268.473 L472.274,-268.473 L472.274,-474.236 L266.511,-474.236 L266.511,-268.473 Z M515.385,-268.473 L721.148,-268.473 L721.148,-474.236 L515.385,-474.236 L515.385,-268.473 Z M762.303,-268.473 L968.066,-268.473 L968.066,-474.236 L762.303,-474.236 L762.303,-268.473 Z M-968.066,-21.5556 L-762.303,-21.5556 L-762.303,-227.318 L-968.066,-227.318 L-968.066,-21.5556 Z M-721.151,-21.5556 L-515.388,-21.5556 L-515.388,-227.318 L-721.151,-227.318 L-721.151,-21.5556 Z M-474.236,-21.5556 L-268.473,-21.5556 L-268.473,-227.318 L-474.236,-227.318 L-474.236,-21.5556 Z M-227.318,-21.5556 L-21.5556,-21.5556 L-21.5556,-227.318 L-227.318,-227.318 L-227.318,-21.5556 Z M21.5556,-21.5556 L227.318,-21.5556 L227.318,-227.318 L21.5556,-227.318 L21.5556,-21.5556 Z M266.511,-21.5556 L472.274,-21.5556 L472.274,-227.318 L266.511,-227.318 L266.511,-21.5556 Z M515.385,-21.5556 L721.148,-21.5556 L721.148,-227.318 L515.385,-227.318 L515.385,-21.5556 Z M762.303,-21.5556 L968.066,-21.5556 L968.066,-227.318 L762.303,-227.318 L762.303,-21.5556 Z M-968.066,227.318 L-762.303,227.318 L-762.303,21.5556 L-968.066,21.5556 L-968.066,227.318 Z M-721.151,227.318 L-515.388,227.318 L-515.388,21.5556 L-721.151,21.5556 L-721.151,227.318 Z M-474.236,227.318 L-268.473,227.318 L-268.473,21.5556 L-474.236,21.5556 L-474.236,227.318 Z M-227.318,227.318 L-21.5556,227.318 L-21.5556,21.5556 L-227.318,21.5556 L-227.318,227.318 Z M21.5556,227.318 L227.318,227.318 L227.318,21.5556 L21.5556,21.5556 L21.5556,227.318 Z M266.511,227.318 L472.274,227.318 L472.274,21.5556 L266.511,21.5556 L266.511,227.318 Z M515.385,227.318 L721.148,227.318 L721.148,21.5556 L515.385,21.5556 L515.385,227.318 Z M762.303,227.318 L968.066,227.318 L968.066,21.5556 L762.303,21.5556 L762.303,227.318 Z M-968.066,472.274 L-762.303,472.274 L-762.303,266.511 L-968.066,266.511 L-968.066,472.274 Z M-721.151,472.274 L-515.388,472.274 L-515.388,266.511 L-721.151,266.511 L-721.151,472.274 Z M-474.236,472.274 L-268.473,472.274 L-268.473,266.511 L-474.236,266.511 L-474.236,472.274 Z M-227.318,472.274 L-21.5556,472.274 L-21.5556,266.511 L-227.318,266.511 L-227.318,472.274 Z M21.5556,472.274 L227.318,472.274 L227.318,266.511 L21.5556,266.511 L21.5556,472.274 Z M266.511,472.274 L472.274,472.274 L472.274,266.511 L266.511,266.511 L266.511,472.274 Z M515.385,472.274 L721.148,472.274 L721.148,266.511 L515.385,266.511 L515.385,472.274 Z M762.303,472.274 L968.066,472.274 L968.066,266.511 L762.303,266.511 L762.303,472.274 Z M-968.066,721.148 L-762.303,721.148 L-762.303,515.385 L-968.066,515.385 L-968.066,721.148 Z M-721.151,721.148 L-515.388,721.148 L-515.388,515.385 L-721.151,515.385 L-721.151,721.148 Z M-474.236,721.148 L-268.473,721.148 L-268.473,515.385 L-474.236,515.385 L-474.236,721.148 Z M-227.318,721.148 L-21.5556,721.148 L-21.5556,515.385 L-227.318,515.385 L-227.318,721.148 Z M21.5556,721.148 L227.318,721.148 L227.318,515.385 L21.5556,515.385 L21.5556,721.148 Z M266.511,721.148 L472.274,721.148 L472.274,515.385 L266.511,515.385 L266.511,721.148 Z M515.385,721.148 L721.148,721.148 L721.148,515.385 L515.385,515.385 L515.385,721.148 Z M762.303,721.148 L968.066,721.148 L968.066,515.385 L762.303,515.385 L762.303,721.148 Z M-968.066,968.066 L-762.303,968.066 L-762.303,762.303 L-968.066,762.303 L-968.066,968.066 Z M-721.151,968.066 L-515.388,968.066 L-515.388,762.303 L-721.151,762.303 L-721.151,968.066 Z M-474.236,968.066 L-268.473,968.066 L-268.473,762.303 L-474.236,762.303 L-474.236,968.066 Z M-227.318,968.066 L-21.5556,968.066 L-21.5556,762.303 L-227.318,762.303 L-227.318,968.066 Z M21.5556,968.066 L227.318,968.066 L227.318,762.303 L21.5556,762.303 L21.5556,968.066 Z M266.511,968.066 L472.274,968.066 L472.274,762.303 L266.511,762.303 L266.511,968.066 Z M515.385,968.066 L721.148,968.066 L721.148,762.303 L515.385,762.303 L515.385,968.066 Z M762.303,968.066 L968.066,968.066 L968.066,762.303 L762.303,762.303 L762.303,968.066 Z " fill="#800102" fill-opacity="1.00" />			<path d="M-940.207,714.904 C-940.207,838.387 -838.387,938.04 -717.07,940.207 L712.737,940.207 C836.221,940.207 938.04,840.553 938.04,714.904 L938.04,-714.904 C938.04,-838.387 838.387,-940.207 712.737,-940.207 L-714.904,-940.207 C-838.387,-940.207 -940.207,-840.553 -940.207,-714.904 L-940.207,714.904 Z " fill="#9c9c9c" fill-opacity="1.00" />			<defs>				<filter id="YX44BUhe" x="-3.99%" y="-3.41%" width="135.58%" height="135.04%" filterUnits="objectBoundingBox">					<feOffset dx="198.99" dy="208.70" in="SourceAlpha" result="shadowOffsetOuter1" />					<feGaussianBlur stdDeviation="133.08" in="shadowOffsetOuter1" result="shadowBlurOuter1" />					<feFlood flood-color="#000000" flood-opacity="0.49" />					<feComposite in2="shadowBlurOuter1" operator="in" />					<feMerge>						<feMergeNode />						<feMergeNode in="SourceGraphic" />					</feMerge>				</filter>			</defs>			<path d="M640.649,842.55 C751.306,842.55 840.609,751.306 842.55,642.59 L842.55,-638.707 C842.55,-749.365 753.247,-840.609 640.649,-840.609 L-640.649,-840.609 C-751.306,-840.609 -842.55,-751.306 -842.55,-638.707 L-842.55,640.649 C-842.55,751.306 -753.247,842.55 -640.649,842.55 L640.649,842.55 Z " fill="#800102" fill-opacity="1.00" filter="url(#YX44BUhe)" />			<defs>				<filter id="HvwtoZhK" x="0.00%" y="0.00%" width="116.00%" height="116.00%" filterUnits="objectBoundingBox">					<feOffset dx="121.62" dy="121.62" in="SourceAlpha" result="shadowOffsetOuter1" />					<feGaussianBlur stdDeviation="60.81" in="shadowOffsetOuter1" result="shadowBlurOuter1" />					<feFlood flood-color="#000000" flood-opacity="0.51" />					<feComposite in2="shadowBlurOuter1" operator="in" />					<feMerge>						<feMergeNode />						<feMergeNode in="SourceGraphic" />					</feMerge>				</filter>			</defs>			<path d="M760.154,676.537 L760.154,-676.537 C760.154,-722.146 722.146,-760.154 676.537,-760.154 L-676.537,-760.154 C-722.146,-760.154 -760.154,-722.146 -760.154,-676.537 L-760.154,676.537 C-760.154,722.146 -722.146,760.154 -676.537,760.154 L51.6905,760.154 L51.6905,171.795 L-145.95,171.795 L-145.95,-57.7717 L51.6905,-57.7717 L51.6905,-226.526 C51.6905,-422.645 171.795,-529.067 346.63,-529.067 C430.247,-529.067 501.701,-522.986 522.986,-519.945 L522.986,-314.704 L401.361,-314.704 C305.582,-314.704 287.338,-270.615 287.338,-203.721 L287.338,-57.7717 L513.864,-57.7717 L484.978,171.795 L287.338,171.795 L287.338,760.154 L675.016,760.154 C720.626,760.154 758.633,722.146 758.633,676.537 L760.154,676.537 Z " fill="#9c9c9c" fill-opacity="1.00" filter="url(#HvwtoZhK)" />		</g>	</svg>